PathFileType	4	(X/Y/Z)	output.trc
DataRate	CameraRate	NumFrames	NumMarkers	Units	OrigDataRate	OrigDataStartFrame	OrigNumFrames
1.0	1.0	55	3	mm	1.0	985	1125
Frame#	Time	Joint1X	Joint1Y	Joint1Z	Joint2X	Joint2Y	Joint2Z	Joint3X	Joint3Y	Joint3Z
										
985	984.00000	-0.15972	1.50661	1.94354	-0.21724	1.26109	2.06262	-0.23159	1.02892	2.05682
986	985.00000	-0.16083	1.50506	1.94372	-0.21545	1.26105	2.06730	-0.22770	1.02858	2.06618
987	986.00000	-0.16191	1.50355	1.94408	-0.21330	1.26077	2.07153	-0.22397	1.02820	2.07463
988	987.00000	-0.16289	1.50217	1.94442	-0.21102	1.26055	2.07538	-0.22035	1.02803	2.08230
989	988.00000	-0.16369	1.50101	1.94456	-0.20882	1.26068	2.07899	-0.21678	1.02827	2.08940
990	989.00000	-0.16427	1.50008	1.94432	-0.20685	1.26134	2.08242	-0.21314	1.02906	2.09606
991	990.00000	-0.16466	1.49938	1.94360	-0.20513	1.26258	2.08569	-0.20929	1.03037	2.10228
992	991.00000	-0.16488	1.49882	1.94242	-0.20357	1.26423	2.08875	-0.20505	1.03204	2.10784
993	992.00000	-0.16501	1.49833	1.94087	-0.20201	1.26599	2.09143	-0.20031	1.03379	2.11234
994	993.00000	-0.16511	1.49782	1.93915	-0.20029	1.26753	2.09356	-0.19507	1.03531	2.11526
995	994.00000	-0.16521	1.49725	1.93743	-0.19830	1.26857	2.09500	-0.18943	1.03633	2.11619
996	995.00000	-0.16533	1.49660	1.93586	-0.19606	1.26896	2.09573	-0.18369	1.03672	2.11499
997	996.00000	-0.16548	1.49590	1.93455	-0.19366	1.26875	2.09583	-0.17817	1.03650	2.11190
998	997.00000	-0.16566	1.49522	1.93349	-0.19127	1.26812	2.09553	-0.17324	1.03584	2.10751
999	998.00000	-0.16586	1.49461	1.93266	-0.18906	1.26736	2.09505	-0.16919	1.03496	2.10267
1000	999.00000	-0.16611	1.49412	1.93195	-0.18719	1.26671	2.09461	-0.16617	1.03411	2.09826
1001	1000.00000	-0.16639	1.49378	1.93124	-0.18577	1.26635	2.09430	-0.16425	1.03346	2.09497
1002	1001.00000	-0.16670	1.49357	1.93040	-0.18488	1.26633	2.09406	-0.16343	1.03310	2.09323
1003	1002.00000	-0.16700	1.49346	1.92934	-0.18459	1.26658	2.09370	-0.16374	1.03302	2.09318
1004	1003.00000	-0.16723	1.49337	1.92798	-0.18493	1.26690	2.09296	-0.16525	1.03315	2.09475
1005	1004.00000	-0.16732	1.49323	1.92629	-0.18591	1.26711	2.09158	-0.16813	1.03341	2.09776
1006	1005.00000	-0.16719	1.49300	1.92430	-0.18750	1.26701	2.08939	-0.17249	1.03371	2.10191
1007	1006.00000	-0.16681	1.49267	1.92209	-0.18960	1.26651	2.08631	-0.17831	1.03398	2.10675
1008	1007.00000	-0.16618	1.49227	1.91974	-0.19204	1.26562	2.08241	-0.18533	1.03418	2.11158
1009	1008.00000	-0.16535	1.49187	1.91728	-0.19465	1.26445	2.07786	-0.19307	1.03428	2.11544
1010	1009.00000	-0.16442	1.49159	1.91474	-0.19722	1.26319	2.07285	-0.20087	1.03424	2.11716
1011	1010.00000	-0.16352	1.49149	1.91206	-0.19964	1.26203	2.06758	-0.20804	1.03400	2.11565
1012	1011.00000	-0.16276	1.49163	1.90915	-0.20182	1.26112	2.06218	-0.21405	1.03352	2.11017
1013	1012.00000	-0.16221	1.49200	1.90593	-0.20378	1.26055	2.05674	-0.21865	1.03278	2.10065
1014	1013.00000	-0.16188	1.49258	1.90236	-0.20557	1.26029	2.05130	-0.22187	1.03179	2.08778
1015	1014.00000	-0.16171	1.49330	1.89851	-0.20727	1.26027	2.04586	-0.22402	1.03063	2.07291
1016	1015.00000	-0.16159	1.49408	1.89450	-0.20892	1.26035	2.04039	-0.22557	1.02942	2.05768
1017	1016.00000	-0.16142	1.49488	1.89049	-0.21055	1.26040	2.03487	-0.22701	1.02830	2.04353
1018	1017.00000	-0.16109	1.49568	1.88663	-0.21216	1.26034	2.02921	-0.22874	1.02736	2.03128
1019	1018.00000	-0.16054	1.49646	1.88303	-0.21377	1.26009	2.02331	-0.23104	1.02667	2.02099
1020	1019.00000	-0.15976	1.49722	1.87966	-0.21543	1.25966	2.01704	-0.23401	1.02623	2.01204
1021	1020.00000	-0.15879	1.49794	1.87644	-0.21716	1.25906	2.01030	-0.23760	1.02599	2.00341
1022	1021.00000	-0.15769	1.49860	1.87321	-0.21900	1.25832	2.00302	-0.24163	1.02586	1.99415
1023	1022.00000	-0.15650	1.49913	1.86979	-0.22093	1.25747	1.99523	-0.24586	1.02575	1.98364
1024	1023.00000	-0.15522	1.49948	1.86602	-0.22290	1.25652	1.98698	-0.25000	1.02556	1.97179
1025	1024.00000	-0.15380	1.49959	1.86179	-0.22477	1.25549	1.97835	-0.25374	1.02521	1.95895
1026	1025.00000	-0.15215	1.49944	1.85703	-0.22640	1.25438	1.96939	-0.25684	1.02467	1.94576
1027	1026.00000	-0.15019	1.49907	1.85173	-0.22763	1.25323	1.96009	-0.25911	1.02394	1.93288
1028	1027.00000	-0.14787	1.49852	1.84594	-0.22837	1.25205	1.95043	-0.26047	1.02304	1.92081
1029	1028.00000	-0.14521	1.49785	1.83977	-0.22860	1.25088	1.94041	-0.26100	1.02202	1.90976
1030	1029.00000	-0.14228	1.49711	1.83342	-0.22838	1.24970	1.93007	-0.26090	1.02095	1.89970
1031	1030.00000	-0.13925	1.49631	1.82709	-0.22780	1.24851	1.91960	-0.26046	1.01986	1.89041
1032	1031.00000	-0.13627	1.49545	1.82098	-0.22697	1.24724	1.90924	-0.26001	1.01874	1.88167
1033	1032.00000	-0.13347	1.49450	1.81523	-0.22600	1.24582	1.89929	-0.25975	1.01753	1.87329
1034	1033.00000	-0.13094	1.49341	1.80987	-0.22492	1.24418	1.88995	-0.25977	1.01613	1.86516
1035	1034.00000	-0.12867	1.49216	1.80480	-0.22374	1.24225	1.88131	-0.25997	1.01443	1.85718
1036	1035.00000	-0.12661	1.49070	1.79983	-0.22245	1.24003	1.87326	-0.26011	1.01237	1.84917
1037	1036.00000	-0.12464	1.48902	1.79468	-0.22106	1.23755	1.86557	-0.25992	1.00996	1.84086
1038	1037.00000	-0.12267	1.48711	1.78914	-0.21962	1.23491	1.85790	-0.25911	1.00731	1.83183
1039	1038.00000	-0.12061	1.48500	1.78309	-0.21815	1.23223	1.84991	-0.25749	1.00463	1.82163
